<svg xmlns="http://www.w3.org/2000/svg" viewBox="0 0 1000 560" role="img" aria-label="Шоқан Уәлиханов экспедициясының көрінетін маршруты">
      <defs>
        <linearGradient id="v4Land" x1="0" y1="0" x2="1" y2="1">
          <stop offset="0" stop-color="#fff7df"/>
          <stop offset="0.48" stop-color="#e6d2a0"/>
          <stop offset="1" stop-color="#c89b53"/>
        </linearGradient>
        <linearGradient id="v4Lake" x1="0" y1="0" x2="1" y2="1">
          <stop offset="0" stop-color="#9deaff"/>
          <stop offset="1" stop-color="#0d6b67"/>
        </linearGradient>
        <filter id="v4Shadow" x="-20%" y="-20%" width="140%" height="140%">
          <feDropShadow dx="0" dy="10" stdDeviation="9" flood-color="#1f2a2b" flood-opacity="0.24"/>
        </filter>
        <pattern id="v4Grid" width="48" height="48" patternUnits="userSpaceOnUse">
          <path d="M48 0H0V48" fill="none" stroke="#0d6b67" stroke-opacity=".075" stroke-width="1.3"/>
        </pattern>
        <style><![CDATA[
          .map-title{font-family:Georgia,serif;font-size:30px;font-weight:900;fill:#113b35}
          .map-sub{font-family:Arial,sans-serif;font-size:14px;font-weight:800;fill:#5b4b31}
          .map-label{font-family:Arial,sans-serif;font-size:15px;font-weight:900;fill:#102421}
          .map-date{font-family:Arial,sans-serif;font-size:11px;font-weight:800;fill:#5b4b31}
          .route-shadow{fill:none;stroke:rgba(0,0,0,.20);stroke-width:14;stroke-linecap:round;stroke-linejoin:round}
          .route-line{fill:none;stroke:#b5442d;stroke-width:6;stroke-linecap:round;stroke-linejoin:round;stroke-dasharray:13 9}
          .route-glow{fill:none;stroke:#f3d38b;stroke-width:2;stroke-linecap:round;stroke-linejoin:round}
          .marker circle{fill:#c88c2b;stroke:white;stroke-width:4;filter:url(#v4Shadow)}
          .marker.active-static circle{fill:#b5442d}
          .point-number{font-family:Arial,sans-serif;font-size:9px;font-weight:900;fill:#fff}
          .legend-text{font-family:Arial,sans-serif;font-size:12px;font-weight:800;fill:#102421}
        ]]></style>
      </defs>
      <rect width="1000" height="560" rx="28" fill="url(#v4Land)"/>
      <rect width="1000" height="560" rx="28" fill="url(#v4Grid)"/>
      <path d="M0 115 C110 165 195 65 308 122 C435 185 482 72 610 125 C720 170 770 110 875 135 C932 150 965 145 1000 130 L1000 0 L0 0Z" fill="#58745f" opacity=".24"/>
      <path d="M0 418 C130 350 198 452 318 393 C448 330 535 372 648 318 C785 252 895 309 1000 235 L1000 560 L0 560Z" fill="#617d56" opacity=".22"/>
      <path d="M52 403 C115 365 158 423 210 388" fill="none" stroke="#77aec3" stroke-width="5" opacity=".62"/>
      <path d="M310 354 C392 320 430 385 502 338" fill="none" stroke="#77aec3" stroke-width="4" opacity=".62"/>
      <path d="M613 180 C685 110 822 110 910 168 C958 200 948 264 882 292 C788 333 650 299 607 244 C585 217 591 200 613 180Z" fill="url(#v4Lake)" filter="url(#v4Shadow)"/>
      <text x="715" y="222" class="map-title" font-size="24">Ыстықкөл</text>
      <path d="M83 251 L130 140 L177 253Z M190 268 L256 125 L324 270Z M356 284 L410 150 L475 286Z" fill="#4e6257" opacity=".55"/>
      <path d="M109 205 L130 140 L153 205Z M228 188 L256 125 L285 188Z M382 220 L410 150 L441 220Z" fill="#fff8ea" opacity=".78"/>
      <polyline class="route-shadow" points="90,160 380,330 440,305 500,275 545,286 590,312 630,295 675,270 700,252 725,238 760,220 805,230 842,257 830,305 785,335 735,350 610,365 460,410 430,390 340,358 265,315"/>
      <polyline class="route-line" points="90,160 380,330 440,305 500,275 545,286 590,312 630,295 675,270 700,252 725,238 760,220 805,230 842,257 830,305 785,335 735,350 610,365 460,410 430,390 340,358 265,315"/>
      <polyline class="route-glow" points="90,160 380,330 440,305 500,275 545,286 590,312 630,295 675,270 700,252 725,238 760,220 805,230 842,257 830,305 785,335 735,350 610,365 460,410 430,390 340,358 265,315"/>
      
        <g class="marker active-static" data-map-index="0" tabindex="0" role="button" aria-label="18 сәуір: Семей → Аягөз">
          <circle cx="90" cy="160" r="9"></circle>
          <text x="90" y="164" class="point-number" text-anchor="middle">1</text>
          <text x="105" y="149" class="map-label" text-anchor="start">Семей</text><text x="105" y="167" class="map-date" text-anchor="start">18 сәуір</text>
        </g>
        <g class="marker" data-map-index="1" tabindex="0" role="button" aria-label="15 мамыр: Шелек өзені">
          <circle cx="380" cy="330" r="9"></circle>
          <text x="380" y="334" class="point-number" text-anchor="middle">2</text>
          <text x="395" y="319" class="map-label" text-anchor="start">Шелек</text><text x="395" y="337" class="map-date" text-anchor="start">15 мамыр</text>
        </g>
        <g class="marker" data-map-index="2" tabindex="0" role="button" aria-label="16 мамыр: Сөгеті тауы">
          <circle cx="440" cy="305" r="9"></circle>
          <text x="440" y="309" class="point-number" text-anchor="middle">3</text>
          
        </g>
        <g class="marker" data-map-index="3" tabindex="0" role="button" aria-label="17 мамыр: Торайғырдың теріскей жағы">
          <circle cx="500" cy="275" r="9"></circle>
          <text x="500" y="279" class="point-number" text-anchor="middle">4</text>
          <text x="515" y="264" class="map-label" text-anchor="start">Торайғыр</text><text x="515" y="282" class="map-date" text-anchor="start">17 мамыр</text>
        </g>
        <g class="marker" data-map-index="4" tabindex="0" role="button" aria-label="18 мамыр: Сұлу Қарашоқы шатқалы">
          <circle cx="545" cy="286" r="9"></circle>
          <text x="545" y="290" class="point-number" text-anchor="middle">5</text>
          
        </g>
        <g class="marker" data-map-index="5" tabindex="0" role="button" aria-label="19 мамыр: Бірінші Меркі өзені">
          <circle cx="590" cy="312" r="9"></circle>
          <text x="590" y="316" class="point-number" text-anchor="middle">6</text>
          
        </g>
        <g class="marker" data-map-index="6" tabindex="0" role="button" aria-label="20 мамыр: Шырғанақ өзені">
          <circle cx="630" cy="295" r="9"></circle>
          <text x="630" y="299" class="point-number" text-anchor="middle">7</text>
          
        </g>
        <g class="marker" data-map-index="7" tabindex="0" role="button" aria-label="21 мамыр: Қарқара өзені">
          <circle cx="675" cy="270" r="9"></circle>
          <text x="675" y="274" class="point-number" text-anchor="middle">8</text>
          <text x="690" y="259" class="map-label" text-anchor="start">Қарқара</text><text x="690" y="277" class="map-date" text-anchor="start">21 мамыр</text>
        </g>
        <g class="marker" data-map-index="8" tabindex="0" role="button" aria-label="22 мамыр: Қарқарадағы екінші түнемелік">
          <circle cx="700" cy="252" r="9"></circle>
          <text x="700" y="256" class="point-number" text-anchor="middle">9</text>
          
        </g>
        <g class="marker" data-map-index="9" tabindex="0" role="button" aria-label="23 мамыр: Жиделі – Бұғу">
          <circle cx="725" cy="238" r="9"></circle>
          <text x="725" y="242" class="point-number" text-anchor="middle">10</text>
          
        </g>
        <g class="marker" data-map-index="10" tabindex="0" role="button" aria-label="25 мамыр: Санташ асуы">
          <circle cx="760" cy="220" r="9"></circle>
          <text x="760" y="224" class="point-number" text-anchor="middle">11</text>
          <text x="775" y="209" class="map-label" text-anchor="start">Санташ</text><text x="775" y="227" class="map-date" text-anchor="start">25 мамыр</text>
        </g>
        <g class="marker" data-map-index="11" tabindex="0" role="button" aria-label="28 мамыр: Түп өзені, Кеңсай">
          <circle cx="805" cy="230" r="9"></circle>
          <text x="805" y="234" class="point-number" text-anchor="middle">12</text>
          
        </g>
        <g class="marker" data-map-index="12" tabindex="0" role="button" aria-label="29 мамыр: Қарабатпақ өзені">
          <circle cx="842" cy="257" r="9"></circle>
          <text x="842" y="261" class="point-number" text-anchor="middle">13</text>
          <text x="712" y="246" class="map-label" text-anchor="start">Қарабатпақ</text><text x="712" y="264" class="map-date" text-anchor="start">29 мамыр</text>
        </g>
        <g class="marker" data-map-index="13" tabindex="0" role="button" aria-label="2 маусым: Тұлпартас шатқалы">
          <circle cx="830" cy="305" r="9"></circle>
          <text x="830" y="309" class="point-number" text-anchor="middle">14</text>
          <text x="700" y="294" class="map-label" text-anchor="start">Тұлпартас</text><text x="700" y="312" class="map-date" text-anchor="start">2 маусым</text>
        </g>
        <g class="marker" data-map-index="14" tabindex="0" role="button" aria-label="3 маусым: Емен етегі">
          <circle cx="785" cy="335" r="9"></circle>
          <text x="785" y="339" class="point-number" text-anchor="middle">15</text>
          
        </g>
        <g class="marker" data-map-index="15" tabindex="0" role="button" aria-label="4 маусым: Өрікті бұлақтары">
          <circle cx="735" cy="350" r="9"></circle>
          <text x="735" y="354" class="point-number" text-anchor="middle">16</text>
          
        </g>
        <g class="marker" data-map-index="16" tabindex="0" role="button" aria-label="13 маусым: Жалаңаш үстірті">
          <circle cx="610" cy="365" r="9"></circle>
          <text x="610" y="369" class="point-number" text-anchor="middle">17</text>
          <text x="625" y="354" class="map-label" text-anchor="start">Жалаңаш</text><text x="625" y="372" class="map-date" text-anchor="start">13 маусым</text>
        </g>
        <g class="marker" data-map-index="17" tabindex="0" role="button" aria-label="15 маусым: Верный бекінісі">
          <circle cx="460" cy="410" r="9"></circle>
          <text x="460" y="414" class="point-number" text-anchor="middle">18</text>
          <text x="475" y="399" class="map-label" text-anchor="start">Верный</text><text x="475" y="417" class="map-date" text-anchor="start">15 маусым</text>
        </g>
        <g class="marker" data-map-index="18" tabindex="0" role="button" aria-label="16 маусым: Кері шығу">
          <circle cx="430" cy="390" r="9"></circle>
          <text x="430" y="394" class="point-number" text-anchor="middle">19</text>
          
        </g>
        <g class="marker" data-map-index="19" tabindex="0" role="button" aria-label="18 маусым: Шеңгелді">
          <circle cx="340" cy="358" r="9"></circle>
          <text x="340" y="362" class="point-number" text-anchor="middle">20</text>
          
        </g>
        <g class="marker" data-map-index="20" tabindex="0" role="button" aria-label="23 маусым: Тезек ауылы">
          <circle cx="265" cy="315" r="9"></circle>
          <text x="265" y="319" class="point-number" text-anchor="middle">21</text>
          <text x="280" y="304" class="map-label" text-anchor="start">Тезек</text><text x="280" y="322" class="map-date" text-anchor="start">23 маусым</text>
        </g>
      <g transform="translate(825 455)">
        <rect x="0" y="0" width="145" height="78" rx="18" fill="rgba(255,255,255,.72)" stroke="rgba(16,36,33,.16)"/>
        <circle cx="22" cy="24" r="8" fill="#c88c2b" stroke="#fff" stroke-width="3"/>
        <text x="39" y="29" class="legend-text">Тоқтау орны</text>
        <path d="M13 53H48" stroke="#b5442d" stroke-width="6" stroke-linecap="round" stroke-dasharray="10 7"/>
        <text x="58" y="58" class="legend-text">Маршрут</text>
      </g>
      <g transform="translate(65 55)">
        <text class="map-title">Шоқан жүріп өткен жерлер</text>
        <text y="32" class="map-sub">1856 жыл · Ыстықкөл экспедициясының көрінетін маршруты</text>
      </g>
      <g transform="translate(910 75)" filter="url(#v4Shadow)">
        <circle r="40" fill="#fff8e9"/>
        <path d="M0 -28 L12 13 L0 3 L-12 13Z" fill="#0d6b67"/>
        <text x="0" y="58" text-anchor="middle" class="legend-text">N</text>
      </g>
    </svg>