<svg xmlns="http://www.w3.org/2000/svg" viewBox="0 0 900 520" role="img" aria-labelledby="title desc">
  <title id="title">Көне карта</title>
  <desc id="desc">Маршрут пен күнделік стиліндегі карта.</desc>
  <defs>
    <linearGradient id="paper" x1="0" x2="1" y1="0" y2="1"><stop offset="0" stop-color="#fff4d3"/><stop offset="1" stop-color="#d9bd82"/></linearGradient>
  </defs>
  <rect width="900" height="520" rx="36" fill="url(#paper)"/>
  <path d="M70 100c120-60 180 36 285 0s183-75 287-11 150 10 210-15" stroke="#9b6a2b" stroke-width="5" fill="none" opacity=".42"/>
  <path d="M88 430c98-90 178-96 277-45s216 26 290-38 128-50 180-10" stroke="#9b6a2b" stroke-width="5" fill="none" opacity=".42"/>
  <path d="M120 330 C260 220 348 390 460 260 S670 150 790 230" stroke="#b55335" stroke-width="9" stroke-linecap="round" stroke-dasharray="15 14" fill="none"/>
  <g fill="#0d6b67" stroke="#fffaf0" stroke-width="6">
    <circle cx="120" cy="330" r="18"/><circle cx="300" cy="290" r="18"/><circle cx="460" cy="260" r="18"/><circle cx="620" cy="190" r="18"/><circle cx="790" cy="230" r="18"/>
  </g>
  <text x="100" y="382" font-family="Arial" font-size="28" fill="#083e42" font-weight="700">Семей</text>
  <text x="270" y="250" font-family="Arial" font-size="28" fill="#083e42" font-weight="700">Жетісу</text>
  <text x="590" y="150" font-family="Arial" font-size="28" fill="#083e42" font-weight="700">Ыстықкөл</text>
  <path d="M730 388l24-72 24 72-24-15z" fill="#083e42" opacity=".8"/>
  <circle cx="754" cy="390" r="62" fill="none" stroke="#083e42" stroke-width="5" opacity=".8"/>
  <text x="70" y="82" font-family="Georgia, serif" font-size="44" fill="#083e42" font-weight="700">Сапар картасы</text>
</svg>
